<svg xmlns="http://www.w3.org/2000/svg" xmlns:xlink="http://www.w3.org/1999/xlink" width="500" zoomAndPan="magnify" viewBox="0 0 375 374.999991" height="500" preserveAspectRatio="xMidYMid meet" version="1.0"><defs><g/><clipPath id="3c0c38242c"><path d="M 0.320312 0 L 225 0 L 225 375 L 0.320312 375 Z M 0.320312 0 " clip-rule="nonzero"/></clipPath><clipPath id="e23b7e80ac"><rect x="0" width="225" y="0" height="375"/></clipPath><clipPath id="6675a43ebb"><path d="M 227 164 L 262.878906 164 L 262.878906 355 L 227 355 Z M 227 164 " clip-rule="nonzero"/></clipPath><clipPath id="fd5a50fb2f"><rect x="0" width="36" y="0" height="191"/></clipPath><clipPath id="24f28fa55f"><rect x="0" width="263" y="0" height="375"/></clipPath></defs><rect x="-37.5" width="450" fill="#ffffff" y="-37.499999" height="449.999989" fill-opacity="1"/><rect x="-37.5" width="450" fill="#ffffff" y="-37.499999" height="449.999989" fill-opacity="1"/><g transform="matrix(1, 0, 0, 1, 64, 0)"><g clip-path="url(#24f28fa55f)"><g clip-path="url(#3c0c38242c)"><g><g clip-path="url(#e23b7e80ac)"><g fill="#000000" fill-opacity="1"><g transform="translate(1.221008, 327.161925)"><g><path d="M 216.640625 -113.25 C 218.992188 -113.25 220.171875 -112.078125 220.171875 -109.734375 L 220.171875 -49.390625 C 220.171875 -33.628906 215.9375 -21.457031 207.46875 -12.875 C 199 -4.289062 186.765625 0 170.765625 0 L 52.21875 0 C 36.457031 0 24.285156 -4.289062 15.703125 -12.875 C 7.117188 -21.457031 2.828125 -33.628906 2.828125 -49.390625 L 2.828125 -176.40625 C 2.828125 -192.40625 7.117188 -204.640625 15.703125 -213.109375 C 24.285156 -221.578125 36.457031 -225.8125 52.21875 -225.8125 L 170.765625 -225.8125 C 186.765625 -225.8125 199 -221.578125 207.46875 -213.109375 C 215.9375 -204.640625 220.171875 -192.40625 220.171875 -176.40625 L 220.171875 -121.71875 C 220.171875 -119.375 218.992188 -118.203125 216.640625 -118.203125 L 117.484375 -118.203125 C 115.140625 -118.203125 113.96875 -119.375 113.96875 -121.71875 L 113.96875 -163.71875 L 109.03125 -163.71875 L 109.03125 -62.09375 L 113.96875 -62.09375 L 113.96875 -109.734375 C 113.96875 -112.078125 115.140625 -113.25 117.484375 -113.25 Z M 216.640625 -113.25 "/></g></g></g></g></g></g><g clip-path="url(#6675a43ebb)"><g transform="matrix(1, 0, 0, 1, 227, 164)"><g clip-path="url(#fd5a50fb2f)"><g fill="#000000" fill-opacity="1"><g transform="translate(1.357891, 158.270016)"><g><path d="M 1.265625 -30.171875 C 1.265625 -31.234375 1.796875 -31.765625 2.859375 -31.765625 L 31.453125 -31.765625 C 32.503906 -31.765625 33.03125 -31.234375 33.03125 -30.171875 L 33.03125 -1.59375 C 33.03125 -0.53125 32.503906 0 31.453125 0 L 2.859375 0 C 1.796875 0 1.265625 -0.53125 1.265625 -1.59375 Z M 1.265625 -30.171875 "/></g></g></g></g></g></g></g></g></svg>