<svg xmlns="http://www.w3.org/2000/svg" xmlns:xlink="http://www.w3.org/1999/xlink" width="500" zoomAndPan="magnify" viewBox="0 0 375 374.999991" height="500" preserveAspectRatio="xMidYMid meet" version="1.0"><defs><g/><clipPath id="17c6b54029"><rect x="0" width="338" y="0" height="106"/></clipPath><clipPath id="fcb49c11aa"><rect x="0" width="31" y="0" height="83"/></clipPath></defs><rect x="-37.5" width="450" fill="#ffffff" y="-37.499999" height="449.999989" fill-opacity="1"/><rect x="-37.5" width="450" fill="#ffffff" y="-37.499999" height="449.999989" fill-opacity="1"/><g transform="matrix(1, 0, 0, 1, 16, 134)"><g clip-path="url(#17c6b54029)"><g fill="#000000" fill-opacity="1"><g transform="translate(0.507805, 79.705858)"><g><path d="M 39.359375 -12.578125 C 38.984375 -10.617188 38.328125 -8.804688 37.390625 -7.140625 C 36.460938 -5.472656 35.285156 -4.03125 33.859375 -2.8125 C 32.429688 -1.601562 30.765625 -0.664062 28.859375 0 C 26.953125 0.664062 24.832031 1 22.5 1 C 20.019531 1 17.671875 0.597656 15.453125 -0.203125 C 13.242188 -1.015625 11.304688 -2.195312 9.640625 -3.75 C 7.972656 -5.300781 6.648438 -7.191406 5.671875 -9.421875 C 4.703125 -11.660156 4.21875 -14.234375 4.21875 -17.140625 L 4.21875 -18 C 4.21875 -20.851562 4.703125 -23.421875 5.671875 -25.703125 C 6.648438 -27.992188 7.972656 -29.925781 9.640625 -31.5 C 11.304688 -33.070312 13.242188 -34.285156 15.453125 -35.140625 C 17.671875 -36.003906 20.019531 -36.4375 22.5 -36.4375 C 24.738281 -36.4375 26.8125 -36.101562 28.71875 -35.4375 C 30.625 -34.769531 32.300781 -33.828125 33.75 -32.609375 C 35.207031 -31.398438 36.398438 -29.957031 37.328125 -28.28125 C 38.253906 -26.613281 38.882812 -24.804688 39.21875 -22.859375 L 33.640625 -21.578125 C 33.503906 -22.816406 33.160156 -24.019531 32.609375 -25.1875 C 32.066406 -26.351562 31.328125 -27.375 30.390625 -28.25 C 29.460938 -29.132812 28.332031 -29.835938 27 -30.359375 C 25.664062 -30.878906 24.117188 -31.140625 22.359375 -31.140625 C 20.640625 -31.140625 19.03125 -30.816406 17.53125 -30.171875 C 16.03125 -29.535156 14.707031 -28.632812 13.5625 -27.46875 C 12.425781 -26.300781 11.535156 -24.90625 10.890625 -23.28125 C 10.253906 -21.664062 9.9375 -19.90625 9.9375 -18 L 9.9375 -17.140625 C 9.9375 -15.140625 10.253906 -13.34375 10.890625 -11.75 C 11.535156 -10.15625 12.425781 -8.8125 13.5625 -7.71875 C 14.707031 -6.625 16.039062 -5.773438 17.5625 -5.171875 C 19.09375 -4.578125 20.738281 -4.28125 22.5 -4.28125 C 24.257812 -4.28125 25.796875 -4.550781 27.109375 -5.09375 C 28.421875 -5.644531 29.539062 -6.363281 30.46875 -7.25 C 31.394531 -8.132812 32.128906 -9.144531 32.671875 -10.28125 C 33.222656 -11.425781 33.597656 -12.617188 33.796875 -13.859375 Z M 39.359375 -12.578125 "/></g></g></g><g fill="#000000" fill-opacity="1"><g transform="translate(37.790984, 79.705858)"><g><path d="M 33.640625 -5.421875 L 32.796875 -5.421875 C 32.222656 -4.328125 31.492188 -3.375 30.609375 -2.5625 C 29.734375 -1.757812 28.78125 -1.09375 27.75 -0.5625 C 26.726562 -0.0390625 25.644531 0.347656 24.5 0.609375 C 23.351562 0.867188 22.257812 1 21.21875 1 C 18.832031 1 16.613281 0.597656 14.5625 -0.203125 C 12.519531 -1.015625 10.722656 -2.179688 9.171875 -3.703125 C 7.628906 -5.234375 6.414062 -7.128906 5.53125 -9.390625 C 4.65625 -11.648438 4.21875 -14.234375 4.21875 -17.140625 L 4.21875 -18.28125 C 4.21875 -21.144531 4.664062 -23.707031 5.5625 -25.96875 C 6.46875 -28.226562 7.679688 -30.128906 9.203125 -31.671875 C 10.734375 -33.222656 12.519531 -34.40625 14.5625 -35.21875 C 16.613281 -36.03125 18.785156 -36.4375 21.078125 -36.4375 C 23.503906 -36.4375 25.773438 -35.898438 27.890625 -34.828125 C 30.015625 -33.753906 31.648438 -32.097656 32.796875 -29.859375 L 33.640625 -29.859375 L 33.640625 -50 L 39.21875 -50 L 39.21875 0 L 33.640625 0 Z M 21.78125 -4.28125 C 23.445312 -4.28125 24.992188 -4.585938 26.421875 -5.203125 C 27.859375 -5.828125 29.113281 -6.710938 30.1875 -7.859375 C 31.257812 -9.003906 32.101562 -10.375 32.71875 -11.96875 C 33.332031 -13.5625 33.640625 -15.332031 33.640625 -17.28125 L 33.640625 -18.140625 C 33.640625 -20.046875 33.332031 -21.796875 32.71875 -23.390625 C 32.101562 -24.984375 31.257812 -26.351562 30.1875 -27.5 C 29.113281 -28.644531 27.847656 -29.535156 26.390625 -30.171875 C 24.941406 -30.816406 23.40625 -31.140625 21.78125 -31.140625 C 20.113281 -31.140625 18.554688 -30.832031 17.109375 -30.21875 C 15.660156 -29.601562 14.398438 -28.722656 13.328125 -27.578125 C 12.253906 -26.429688 11.421875 -25.070312 10.828125 -23.5 C 10.234375 -21.925781 9.9375 -20.1875 9.9375 -18.28125 L 9.9375 -17.140625 C 9.9375 -15.140625 10.234375 -13.351562 10.828125 -11.78125 C 11.421875 -10.21875 12.253906 -8.875 13.328125 -7.75 C 14.398438 -6.632812 15.648438 -5.773438 17.078125 -5.171875 C 18.503906 -4.578125 20.070312 -4.28125 21.78125 -4.28125 Z M 21.78125 -4.28125 "/></g></g></g><g fill="#000000" fill-opacity="1"><g transform="translate(75.074162, 79.705858)"><g><path d="M 4.21875 -35.4375 L 17.078125 -35.4375 L 17.078125 -30.71875 L 17.9375 -30.71875 C 18.832031 -32.664062 20.113281 -34.101562 21.78125 -35.03125 C 23.445312 -35.96875 25.351562 -36.4375 27.5 -36.4375 C 31.070312 -36.4375 33.953125 -35.269531 36.140625 -32.9375 C 38.335938 -30.601562 39.503906 -27.195312 39.640625 -22.71875 L 33.796875 -21.859375 C 33.796875 -25.148438 33.007812 -27.519531 31.4375 -28.96875 C 29.863281 -30.414062 27.929688 -31.140625 25.640625 -31.140625 C 24.171875 -31.140625 22.898438 -30.851562 21.828125 -30.28125 C 20.753906 -29.71875 19.859375 -28.9375 19.140625 -27.9375 C 18.429688 -26.9375 17.910156 -25.769531 17.578125 -24.4375 C 17.242188 -23.101562 17.078125 -21.671875 17.078125 -20.140625 L 17.078125 -5.140625 L 26.078125 -5.140625 L 26.078125 0 L 3.359375 0 L 3.359375 -5.140625 L 11.5 -5.140625 L 11.5 -30.296875 L 4.21875 -30.296875 Z M 4.21875 -35.4375 "/></g></g></g><g fill="#000000" fill-opacity="1"><g transform="translate(112.357341, 79.705858)"><g><path d="M 27.296875 0 L 16.28125 0 L 3.921875 -35.4375 L 10.5 -35.4375 L 21.359375 -2.578125 L 22.21875 -2.578125 L 33.078125 -35.4375 L 39.640625 -35.4375 Z M 27.296875 0 "/></g></g></g><g fill="#000000" fill-opacity="1"><g transform="translate(149.64052, 79.705858)"><g><path d="M 31.9375 -6 L 31.078125 -6 C 29.929688 -3.613281 28.34375 -1.847656 26.3125 -0.703125 C 24.289062 0.429688 22.164062 1 19.9375 1 C 17.601562 1 15.4375 0.609375 13.4375 -0.171875 C 11.4375 -0.960938 9.679688 -2.128906 8.171875 -3.671875 C 6.671875 -5.222656 5.492188 -7.117188 4.640625 -9.359375 C 3.785156 -11.597656 3.359375 -14.191406 3.359375 -17.140625 L 3.359375 -18.28125 C 3.359375 -21.1875 3.785156 -23.757812 4.640625 -26 C 5.492188 -28.238281 6.671875 -30.128906 8.171875 -31.671875 C 9.679688 -33.222656 11.4375 -34.40625 13.4375 -35.21875 C 15.4375 -36.03125 17.550781 -36.4375 19.78125 -36.4375 C 22.21875 -36.4375 24.421875 -35.898438 26.390625 -34.828125 C 28.367188 -33.753906 29.929688 -32.097656 31.078125 -29.859375 L 31.9375 -29.859375 L 31.9375 -35.4375 L 37.5 -35.4375 L 37.5 -7.28125 C 37.5 -5.851562 38.144531 -5.140625 39.4375 -5.140625 L 41.21875 -5.140625 L 41.21875 0 L 37.4375 0 C 35.8125 0 34.488281 -0.519531 33.46875 -1.5625 C 32.445312 -2.613281 31.9375 -3.953125 31.9375 -5.578125 Z M 20.5 -4.28125 C 22.164062 -4.28125 23.703125 -4.585938 25.109375 -5.203125 C 26.515625 -5.828125 27.71875 -6.710938 28.71875 -7.859375 C 29.71875 -9.003906 30.503906 -10.375 31.078125 -11.96875 C 31.648438 -13.5625 31.9375 -15.332031 31.9375 -17.28125 L 31.9375 -18.140625 C 31.9375 -20.046875 31.648438 -21.796875 31.078125 -23.390625 C 30.503906 -24.984375 29.703125 -26.351562 28.671875 -27.5 C 27.648438 -28.644531 26.4375 -29.535156 25.03125 -30.171875 C 23.632812 -30.816406 22.125 -31.140625 20.5 -31.140625 C 18.832031 -31.140625 17.304688 -30.832031 15.921875 -30.21875 C 14.546875 -29.601562 13.34375 -28.734375 12.3125 -27.609375 C 11.289062 -26.492188 10.492188 -25.132812 9.921875 -23.53125 C 9.359375 -21.9375 9.078125 -20.1875 9.078125 -18.28125 L 9.078125 -17.140625 C 9.078125 -13.097656 10.132812 -9.941406 12.25 -7.671875 C 14.375 -5.410156 17.125 -4.28125 20.5 -4.28125 Z M 20.5 -4.28125 "/></g></g></g><g fill="#000000" fill-opacity="1"><g transform="translate(186.923698, 79.705858)"><g><path d="M 6.21875 -5.140625 L 19.078125 -5.140625 L 19.078125 -44.859375 L 6.640625 -44.859375 L 6.640625 -50 L 24.640625 -50 L 24.640625 -5.140625 L 37.5 -5.140625 L 37.5 0 L 6.21875 0 Z M 6.21875 -5.140625 "/></g></g></g><g fill="#000000" fill-opacity="1"><g transform="translate(224.206877, 79.705858)"><g><path d="M 33.640625 -5.421875 L 32.796875 -5.421875 C 32.222656 -4.328125 31.492188 -3.375 30.609375 -2.5625 C 29.734375 -1.757812 28.78125 -1.09375 27.75 -0.5625 C 26.726562 -0.0390625 25.644531 0.347656 24.5 0.609375 C 23.351562 0.867188 22.257812 1 21.21875 1 C 18.832031 1 16.613281 0.597656 14.5625 -0.203125 C 12.519531 -1.015625 10.722656 -2.179688 9.171875 -3.703125 C 7.628906 -5.234375 6.414062 -7.128906 5.53125 -9.390625 C 4.65625 -11.648438 4.21875 -14.234375 4.21875 -17.140625 L 4.21875 -18.28125 C 4.21875 -21.144531 4.664062 -23.707031 5.5625 -25.96875 C 6.46875 -28.226562 7.679688 -30.128906 9.203125 -31.671875 C 10.734375 -33.222656 12.519531 -34.40625 14.5625 -35.21875 C 16.613281 -36.03125 18.785156 -36.4375 21.078125 -36.4375 C 23.503906 -36.4375 25.773438 -35.898438 27.890625 -34.828125 C 30.015625 -33.753906 31.648438 -32.097656 32.796875 -29.859375 L 33.640625 -29.859375 L 33.640625 -50 L 39.21875 -50 L 39.21875 0 L 33.640625 0 Z M 21.78125 -4.28125 C 23.445312 -4.28125 24.992188 -4.585938 26.421875 -5.203125 C 27.859375 -5.828125 29.113281 -6.710938 30.1875 -7.859375 C 31.257812 -9.003906 32.101562 -10.375 32.71875 -11.96875 C 33.332031 -13.5625 33.640625 -15.332031 33.640625 -17.28125 L 33.640625 -18.140625 C 33.640625 -20.046875 33.332031 -21.796875 32.71875 -23.390625 C 32.101562 -24.984375 31.257812 -26.351562 30.1875 -27.5 C 29.113281 -28.644531 27.847656 -29.535156 26.390625 -30.171875 C 24.941406 -30.816406 23.40625 -31.140625 21.78125 -31.140625 C 20.113281 -31.140625 18.554688 -30.832031 17.109375 -30.21875 C 15.660156 -29.601562 14.398438 -28.722656 13.328125 -27.578125 C 12.253906 -26.429688 11.421875 -25.070312 10.828125 -23.5 C 10.234375 -21.925781 9.9375 -20.1875 9.9375 -18.28125 L 9.9375 -17.140625 C 9.9375 -15.140625 10.234375 -13.351562 10.828125 -11.78125 C 11.421875 -10.21875 12.253906 -8.875 13.328125 -7.75 C 14.398438 -6.632812 15.648438 -5.773438 17.078125 -5.171875 C 18.503906 -4.578125 20.070312 -4.28125 21.78125 -4.28125 Z M 21.78125 -4.28125 "/></g></g></g><g fill="#000000" fill-opacity="1"><g transform="translate(261.490056, 79.705858)"><g><path d="M 10.28125 -16 C 10.425781 -12.476562 11.519531 -9.644531 13.5625 -7.5 C 15.613281 -5.351562 18.472656 -4.28125 22.140625 -4.28125 C 23.804688 -4.28125 25.257812 -4.46875 26.5 -4.84375 C 27.738281 -5.226562 28.796875 -5.753906 29.671875 -6.421875 C 30.554688 -7.085938 31.269531 -7.863281 31.8125 -8.75 C 32.363281 -9.632812 32.804688 -10.578125 33.140625 -11.578125 L 38.4375 -10.140625 C 37.4375 -6.859375 35.585938 -4.179688 32.890625 -2.109375 C 30.203125 -0.0351562 26.570312 1 22 1 C 19.476562 1 17.15625 0.5625 15.03125 -0.3125 C 12.914062 -1.195312 11.09375 -2.445312 9.5625 -4.0625 C 8.039062 -5.6875 6.851562 -7.617188 6 -9.859375 C 5.144531 -12.097656 4.71875 -14.570312 4.71875 -17.28125 L 4.71875 -19 C 4.71875 -21.476562 5.15625 -23.785156 6.03125 -25.921875 C 6.914062 -28.066406 8.144531 -29.914062 9.71875 -31.46875 C 11.289062 -33.019531 13.132812 -34.234375 15.25 -35.109375 C 17.375 -35.992188 19.671875 -36.4375 22.140625 -36.4375 C 25.046875 -36.4375 27.554688 -35.898438 29.671875 -34.828125 C 31.796875 -33.753906 33.535156 -32.429688 34.890625 -30.859375 C 36.253906 -29.285156 37.253906 -27.570312 37.890625 -25.71875 C 38.535156 -23.863281 38.859375 -22.148438 38.859375 -20.578125 L 38.859375 -16 Z M 22.140625 -31.140625 C 20.566406 -31.140625 19.101562 -30.890625 17.75 -30.390625 C 16.394531 -29.890625 15.203125 -29.1875 14.171875 -28.28125 C 13.148438 -27.382812 12.316406 -26.328125 11.671875 -25.109375 C 11.035156 -23.890625 10.625 -22.566406 10.4375 -21.140625 L 33.296875 -21.140625 C 33.191406 -22.671875 32.816406 -24.050781 32.171875 -25.28125 C 31.535156 -26.519531 30.703125 -27.566406 29.671875 -28.421875 C 28.648438 -29.285156 27.484375 -29.953125 26.171875 -30.421875 C 24.867188 -30.898438 23.523438 -31.140625 22.140625 -31.140625 Z M 22.140625 -31.140625 "/></g></g></g><g fill="#000000" fill-opacity="1"><g transform="translate(298.773234, 79.705858)"><g><path d="M 37.359375 -5.140625 L 37.359375 0 L 6.5 0 L 6.5 -8.859375 L 31.796875 -29.4375 L 31.796875 -30.296875 L 6.921875 -30.296875 L 6.921875 -35.4375 L 36.5 -35.4375 L 36.5 -26.859375 L 11.078125 -6 L 11.078125 -5.140625 Z M 37.359375 -5.140625 "/></g></g></g></g></g><g transform="matrix(1, 0, 0, 1, 341, 152)"><g clip-path="url(#fcb49c11aa)"><g fill="#000000" fill-opacity="1"><g transform="translate(0.900607, 61.699942)"><g><path d="M 13.078125 -3.109375 C 13.078125 -4.179688 13.457031 -5.09375 14.21875 -5.84375 C 14.976562 -6.601562 15.894531 -6.984375 16.96875 -6.984375 C 18.039062 -6.984375 18.953125 -6.601562 19.703125 -5.84375 C 20.460938 -5.09375 20.84375 -4.179688 20.84375 -3.109375 C 20.84375 -2.035156 20.460938 -1.117188 19.703125 -0.359375 C 18.953125 0.398438 18.039062 0.78125 16.96875 0.78125 C 15.894531 0.78125 14.976562 0.398438 14.21875 -0.359375 C 13.457031 -1.117188 13.078125 -2.035156 13.078125 -3.109375 Z M 13.078125 -3.109375 "/></g></g></g></g></g><g fill="#000000" fill-opacity="1"><g transform="translate(326.246906, 226.780238)"><g><path d="M 1.140625 0 L 1.140625 -8.453125 L 4.0625 -8.453125 C 4.96875 -8.453125 5.738281 -8.289062 6.375 -7.96875 C 7.007812 -7.644531 7.488281 -7.171875 7.8125 -6.546875 C 8.144531 -5.921875 8.3125 -5.148438 8.3125 -4.234375 C 8.3125 -3.328125 8.144531 -2.554688 7.8125 -1.921875 C 7.476562 -1.296875 6.992188 -0.816406 6.359375 -0.484375 C 5.734375 -0.160156 4.96875 0 4.0625 0 Z M 2.171875 -0.890625 L 4 -0.890625 C 5.070312 -0.890625 5.878906 -1.164062 6.421875 -1.71875 C 6.972656 -2.28125 7.25 -3.117188 7.25 -4.234375 C 7.25 -5.359375 6.972656 -6.195312 6.421875 -6.75 C 5.878906 -7.300781 5.070312 -7.578125 4 -7.578125 L 2.171875 -7.578125 Z M 2.171875 -0.890625 "/></g></g></g><g fill="#000000" fill-opacity="1"><g transform="translate(334.298934, 226.780238)"><g><path d="M 1.140625 0 L 1.140625 -8.453125 L 6.578125 -8.453125 L 6.578125 -7.578125 L 2.15625 -7.578125 L 2.15625 -4.734375 L 6.328125 -4.734375 L 6.328125 -3.859375 L 2.15625 -3.859375 L 2.15625 -0.875 L 6.578125 -0.875 L 6.578125 0 Z M 1.140625 0 "/></g></g></g><g fill="#000000" fill-opacity="1"><g transform="translate(340.454963, 226.780238)"><g><path d="M 3.6875 0 L 0.015625 -8.453125 L 1.109375 -8.453125 L 4.28125 -1.015625 L 4.046875 -1.015625 L 7.203125 -8.453125 L 8.28125 -8.453125 L 4.609375 0 Z M 3.6875 0 "/></g></g></g></svg>