<svg xmlns="http://www.w3.org/2000/svg" xmlns:xlink="http://www.w3.org/1999/xlink" width="500" zoomAndPan="magnify" viewBox="0 0 375 374.999991" height="500" preserveAspectRatio="xMidYMid meet" version="1.0"><defs><g/></defs><rect x="-37.5" width="450" fill="#ffffff" y="-37.499999" height="449.999989" fill-opacity="1"/><rect x="-37.5" width="450" fill="#ffffff" y="-37.499999" height="449.999989" fill-opacity="1"/><g fill="#000000" fill-opacity="1"><g transform="translate(72.639705, 240.399087)"><g><path d="M 76.4375 -24.421875 C 75.695312 -20.628906 74.425781 -17.113281 72.625 -13.875 C 70.820312 -10.632812 68.53125 -7.832031 65.75 -5.46875 C 62.976562 -3.113281 59.742188 -1.289062 56.046875 0 C 52.347656 1.289062 48.234375 1.9375 43.703125 1.9375 C 38.890625 1.9375 34.332031 1.148438 30.03125 -0.421875 C 25.726562 -1.992188 21.957031 -4.28125 18.71875 -7.28125 C 15.488281 -10.289062 12.925781 -13.96875 11.03125 -18.3125 C 9.132812 -22.65625 8.1875 -27.648438 8.1875 -33.296875 L 8.1875 -34.953125 C 8.1875 -40.503906 9.132812 -45.5 11.03125 -49.9375 C 12.925781 -54.375 15.488281 -58.117188 18.71875 -61.171875 C 21.957031 -64.222656 25.726562 -66.582031 30.03125 -68.25 C 34.332031 -69.914062 38.890625 -70.75 43.703125 -70.75 C 48.046875 -70.75 52.066406 -70.097656 55.765625 -68.796875 C 59.460938 -67.503906 62.722656 -65.675781 65.546875 -63.3125 C 68.367188 -60.957031 70.679688 -58.160156 72.484375 -54.921875 C 74.285156 -51.691406 75.507812 -48.179688 76.15625 -44.390625 L 65.34375 -41.890625 C 65.0625 -44.296875 64.390625 -46.628906 63.328125 -48.890625 C 62.265625 -51.160156 60.828125 -53.148438 59.015625 -54.859375 C 57.210938 -56.566406 55.015625 -57.929688 52.421875 -58.953125 C 49.835938 -59.972656 46.835938 -60.484375 43.421875 -60.484375 C 40.085938 -60.484375 36.960938 -59.859375 34.046875 -58.609375 C 31.140625 -57.359375 28.578125 -55.597656 26.359375 -53.328125 C 24.140625 -51.066406 22.40625 -48.363281 21.15625 -45.21875 C 19.90625 -42.070312 19.28125 -38.648438 19.28125 -34.953125 L 19.28125 -33.296875 C 19.28125 -29.410156 19.90625 -25.914062 21.15625 -22.8125 C 22.40625 -19.71875 24.140625 -17.109375 26.359375 -14.984375 C 28.578125 -12.859375 31.164062 -11.21875 34.125 -10.0625 C 37.082031 -8.90625 40.273438 -8.328125 43.703125 -8.328125 C 47.117188 -8.328125 50.097656 -8.859375 52.640625 -9.921875 C 55.179688 -10.984375 57.351562 -12.367188 59.15625 -14.078125 C 60.96875 -15.785156 62.40625 -17.75 63.46875 -19.96875 C 64.53125 -22.195312 65.242188 -24.507812 65.609375 -26.90625 Z M 76.4375 -24.421875 "/></g></g></g><g fill="#000000" fill-opacity="1"><g transform="translate(145.048427, 240.399087)"><g><path d="M 65.34375 -10.546875 L 63.671875 -10.546875 C 62.554688 -8.421875 61.144531 -6.570312 59.4375 -5 C 57.726562 -3.425781 55.878906 -2.128906 53.890625 -1.109375 C 51.898438 -0.0859375 49.796875 0.671875 47.578125 1.171875 C 45.359375 1.679688 43.234375 1.9375 41.203125 1.9375 C 36.578125 1.9375 32.273438 1.148438 28.296875 -0.421875 C 24.316406 -1.992188 20.820312 -4.257812 17.8125 -7.21875 C 14.8125 -10.175781 12.457031 -13.847656 10.75 -18.234375 C 9.039062 -22.628906 8.1875 -27.648438 8.1875 -33.296875 L 8.1875 -35.515625 C 8.1875 -41.054688 9.0625 -46.023438 10.8125 -50.421875 C 12.570312 -54.816406 14.929688 -58.515625 17.890625 -61.515625 C 20.847656 -64.523438 24.316406 -66.816406 28.296875 -68.390625 C 32.273438 -69.960938 36.484375 -70.75 40.921875 -70.75 C 45.640625 -70.75 50.054688 -69.707031 54.171875 -67.625 C 58.285156 -65.539062 61.453125 -62.328125 63.671875 -57.984375 L 65.34375 -57.984375 L 65.34375 -97.109375 L 76.15625 -97.109375 L 76.15625 0 L 65.34375 0 Z M 42.3125 -8.328125 C 45.550781 -8.328125 48.554688 -8.925781 51.328125 -10.125 C 54.097656 -11.332031 56.523438 -13.046875 58.609375 -15.265625 C 60.691406 -17.484375 62.332031 -20.140625 63.53125 -23.234375 C 64.738281 -26.328125 65.34375 -29.769531 65.34375 -33.5625 L 65.34375 -35.234375 C 65.34375 -38.929688 64.738281 -42.328125 63.53125 -45.421875 C 62.332031 -48.523438 60.691406 -51.1875 58.609375 -53.40625 C 56.523438 -55.625 54.070312 -57.359375 51.25 -58.609375 C 48.4375 -59.859375 45.457031 -60.484375 42.3125 -60.484375 C 39.070312 -60.484375 36.039062 -59.878906 33.21875 -58.671875 C 30.40625 -57.472656 27.957031 -55.765625 25.875 -53.546875 C 23.789062 -51.328125 22.171875 -48.691406 21.015625 -45.640625 C 19.859375 -42.585938 19.28125 -39.210938 19.28125 -35.515625 L 19.28125 -33.296875 C 19.28125 -29.410156 19.859375 -25.941406 21.015625 -22.890625 C 22.171875 -19.835938 23.789062 -17.222656 25.875 -15.046875 C 27.957031 -12.878906 30.382812 -11.21875 33.15625 -10.0625 C 35.925781 -8.90625 38.976562 -8.328125 42.3125 -8.328125 Z M 42.3125 -8.328125 "/></g></g></g><g fill="#000000" fill-opacity="1"><g transform="translate(217.457148, 240.399087)"><g><path d="M 8.1875 -68.796875 L 33.15625 -68.796875 L 33.15625 -59.65625 L 34.8125 -59.65625 C 36.570312 -63.445312 39.070312 -66.242188 42.3125 -68.046875 C 45.550781 -69.847656 49.25 -70.75 53.40625 -70.75 C 60.34375 -70.75 65.9375 -68.484375 70.1875 -63.953125 C 74.445312 -59.421875 76.710938 -52.804688 76.984375 -44.109375 L 65.609375 -42.453125 C 65.609375 -48.828125 64.082031 -53.425781 61.03125 -56.25 C 57.976562 -59.070312 54.234375 -60.484375 49.796875 -60.484375 C 46.929688 -60.484375 44.457031 -59.925781 42.375 -58.8125 C 40.289062 -57.707031 38.554688 -56.179688 37.171875 -54.234375 C 35.785156 -52.296875 34.769531 -50.03125 34.125 -47.4375 C 33.476562 -44.851562 33.15625 -42.082031 33.15625 -39.125 L 33.15625 -9.984375 L 50.625 -9.984375 L 50.625 0 L 6.515625 0 L 6.515625 -9.984375 L 22.328125 -9.984375 L 22.328125 -58.8125 L 8.1875 -58.8125 Z M 8.1875 -68.796875 "/></g></g></g><g fill="#000000" fill-opacity="1"><g transform="translate(265.517037, 237.726431)"><g><path d="M 23.59375 -5.59375 C 23.59375 -7.53125 24.273438 -9.179688 25.640625 -10.546875 C 27.015625 -11.910156 28.664062 -12.59375 30.59375 -12.59375 C 32.53125 -12.59375 34.179688 -11.910156 35.546875 -10.546875 C 36.910156 -9.179688 37.59375 -7.53125 37.59375 -5.59375 C 37.59375 -3.664062 36.910156 -2.015625 35.546875 -0.640625 C 34.179688 0.722656 32.53125 1.40625 30.59375 1.40625 C 28.664062 1.40625 27.015625 0.722656 25.640625 -0.640625 C 24.273438 -2.015625 23.59375 -3.664062 23.59375 -5.59375 Z M 23.59375 -5.59375 "/></g></g></g><g fill="#000000" fill-opacity="1"><g transform="translate(275.761011, 252.432509)"><g><path d="M 1.140625 0 L 1.140625 -8.453125 L 4.0625 -8.453125 C 4.96875 -8.453125 5.738281 -8.289062 6.375 -7.96875 C 7.007812 -7.644531 7.488281 -7.171875 7.8125 -6.546875 C 8.144531 -5.921875 8.3125 -5.148438 8.3125 -4.234375 C 8.3125 -3.328125 8.144531 -2.554688 7.8125 -1.921875 C 7.476562 -1.296875 6.992188 -0.816406 6.359375 -0.484375 C 5.734375 -0.160156 4.96875 0 4.0625 0 Z M 2.171875 -0.890625 L 4 -0.890625 C 5.070312 -0.890625 5.878906 -1.164062 6.421875 -1.71875 C 6.972656 -2.28125 7.25 -3.117188 7.25 -4.234375 C 7.25 -5.359375 6.972656 -6.195312 6.421875 -6.75 C 5.878906 -7.300781 5.070312 -7.578125 4 -7.578125 L 2.171875 -7.578125 Z M 2.171875 -0.890625 "/></g></g></g><g fill="#000000" fill-opacity="1"><g transform="translate(283.813039, 252.432509)"><g><path d="M 1.140625 0 L 1.140625 -8.453125 L 6.578125 -8.453125 L 6.578125 -7.578125 L 2.15625 -7.578125 L 2.15625 -4.734375 L 6.328125 -4.734375 L 6.328125 -3.859375 L 2.15625 -3.859375 L 2.15625 -0.875 L 6.578125 -0.875 L 6.578125 0 Z M 1.140625 0 "/></g></g></g><g fill="#000000" fill-opacity="1"><g transform="translate(289.969068, 252.432509)"><g><path d="M 3.6875 0 L 0.015625 -8.453125 L 1.109375 -8.453125 L 4.28125 -1.015625 L 4.046875 -1.015625 L 7.203125 -8.453125 L 8.28125 -8.453125 L 4.609375 0 Z M 3.6875 0 "/></g></g></g></svg>